states
version=1
nRows=4
nColumns=211
inDegrees=yes
endheader
time	/jointset/ground_pelvis/pelvis_tilt/value	/jointset/ground_pelvis/pelvis_tilt/speed	/jointset/ground_pelvis/pelvis_list/value	/jointset/ground_pelvis/pelvis_list/speed	/jointset/ground_pelvis/pelvis_rotation/value	/jointset/ground_pelvis/pelvis_rotation/speed	/jointset/ground_pelvis/pelvis_tx/value	/jointset/ground_pelvis/pelvis_tx/speed	/jointset/ground_pelvis/pelvis_ty/value	/jointset/ground_pelvis/pelvis_ty/speed	/jointset/ground_pelvis/pelvis_tz/value	/jointset/ground_pelvis/pelvis_tz/speed	/jointset/hip_r/hip_flexion_r/value	/jointset/hip_r/hip_flexion_r/speed	/jointset/hip_r/hip_adduction_r/value	/jointset/hip_r/hip_adduction_r/speed	/jointset/hip_r/hip_rotation_r/value	/jointset/hip_r/hip_rotation_r/speed	/jointset/walker_knee_r/knee_angle_r/value	/jointset/walker_knee_r/knee_angle_r/speed	/jointset/patellofemoral_r/knee_angle_r_beta/value	/jointset/patellofemoral_r/knee_angle_r_beta/speed	/jointset/interface_r/socket_rotation_r/value	/jointset/interface_r/socket_rotation_r/speed	/jointset/interface_r/socket_piston_r/value	/jointset/interface_r/socket_piston_r/speed	/jointset/interfaceSP_r/SP_rotation_r/value	/jointset/interfaceSP_r/SP_rotation_r/speed	/jointset/ankle_r/ankle_angle_r/value	/jointset/ankle_r/ankle_angle_r/speed	/jointset/ankle_r/ankle_evert_r/value	/jointset/ankle_r/ankle_evert_r/speed	/jointset/ankle_r/ankle_ext_rot_r/value	/jointset/ankle_r/ankle_ext_rot_r/speed	/jointset/hip_l/hip_flexion_l/value	/jointset/hip_l/hip_flexion_l/speed	/jointset/hip_l/hip_adduction_l/value	/jointset/hip_l/hip_adduction_l/speed	/jointset/hip_l/hip_rotation_l/value	/jointset/hip_l/hip_rotation_l/speed	/jointset/walker_knee_l/knee_angle_l/value	/jointset/walker_knee_l/knee_angle_l/speed	/jointset/patellofemoral_l/knee_angle_l_beta/value	/jointset/patellofemoral_l/knee_angle_l_beta/speed	/jointset/ankle_l/ankle_angle_l/value	/jointset/ankle_l/ankle_angle_l/speed	/jointset/subtalar_l/subtalar_angle_l/value	/jointset/subtalar_l/subtalar_angle_l/speed	/jointset/mtp_l/mtp_angle_l/value	/jointset/mtp_l/mtp_angle_l/speed	/jointset/back/lumbar_extension/value	/jointset/back/lumbar_extension/speed	/jointset/back/lumbar_bending/value	/jointset/back/lumbar_bending/speed	/jointset/back/lumbar_rotation/value	/jointset/back/lumbar_rotation/speed	/jointset/acromial_r/arm_flex_r/value	/jointset/acromial_r/arm_flex_r/speed	/jointset/acromial_r/arm_add_r/value	/jointset/acromial_r/arm_add_r/speed	/jointset/acromial_r/arm_rot_r/value	/jointset/acromial_r/arm_rot_r/speed	/jointset/elbow_r/elbow_flex_r/value	/jointset/elbow_r/elbow_flex_r/speed	/jointset/radioulnar_r/pro_sup_r/value	/jointset/radioulnar_r/pro_sup_r/speed	/jointset/radius_hand_r/wrist_flex_r/value	/jointset/radius_hand_r/wrist_flex_r/speed	/jointset/radius_hand_r/wrist_dev_r/value	/jointset/radius_hand_r/wrist_dev_r/speed	/jointset/acromial_l/arm_flex_l/value	/jointset/acromial_l/arm_flex_l/speed	/jointset/acromial_l/arm_add_l/value	/jointset/acromial_l/arm_add_l/speed	/jointset/acromial_l/arm_rot_l/value	/jointset/acromial_l/arm_rot_l/speed	/jointset/elbow_l/elbow_flex_l/value	/jointset/elbow_l/elbow_flex_l/speed	/jointset/radioulnar_l/pro_sup_l/value	/jointset/radioulnar_l/pro_sup_l/speed	/jointset/radius_hand_l/wrist_flex_l/value	/jointset/radius_hand_l/wrist_flex_l/speed	/jointset/radius_hand_l/wrist_dev_l/value	/jointset/radius_hand_l/wrist_dev_l/speed	/forceset/addbrev_r/activation	/forceset/addlong_r/activation	/forceset/addlong_r/fiber_length	/forceset/addmagDist_r/activation	/forceset/addmagIsch_r/activation	/forceset/addmagIsch_r/fiber_length	/forceset/addmagMid_r/activation	/forceset/addmagProx_r/activation	/forceset/bflh_r/activation	/forceset/bflh_r/fiber_length	/forceset/bfsh_r/activation	/forceset/edl_r/activation	/forceset/edl_r/fiber_length	/forceset/ehl_r/activation	/forceset/ehl_r/fiber_length	/forceset/fdl_r/activation	/forceset/fdl_r/fiber_length	/forceset/fhl_r/activation	/forceset/fhl_r/fiber_length	/forceset/gaslat_r/activation	/forceset/gaslat_r/fiber_length	/forceset/gasmed_r/activation	/forceset/gasmed_r/fiber_length	/forceset/glmax1_r/activation	/forceset/glmax2_r/activation	/forceset/glmax3_r/activation	/forceset/glmed1_r/activation	/forceset/glmed2_r/activation	/forceset/glmed3_r/activation	/forceset/glmin1_r/activation	/forceset/glmin2_r/activation	/forceset/glmin3_r/activation	/forceset/glmin3_r/fiber_length	/forceset/grac_r/activation	/forceset/iliacus_r/activation	/forceset/perbrev_r/activation	/forceset/perbrev_r/fiber_length	/forceset/perlong_r/activation	/forceset/perlong_r/fiber_length	/forceset/piri_r/activation	/forceset/piri_r/fiber_length	/forceset/psoas_r/activation	/forceset/recfem_r/activation	/forceset/recfem_r/fiber_length	/forceset/sart_r/activation	/forceset/semimem_r/activation	/forceset/semimem_r/fiber_length	/forceset/semiten_r/activation	/forceset/semiten_r/fiber_length	/forceset/soleus_r/activation	/forceset/soleus_r/fiber_length	/forceset/tfl_r/activation	/forceset/tfl_r/fiber_length	/forceset/tibant_r/activation	/forceset/tibant_r/fiber_length	/forceset/tibpost_r/activation	/forceset/tibpost_r/fiber_length	/forceset/vasint_r/activation	/forceset/vasint_r/fiber_length	/forceset/vaslat_r/activation	/forceset/vaslat_r/fiber_length	/forceset/vasmed_r/activation	/forceset/vasmed_r/fiber_length	/forceset/addbrev_l/activation	/forceset/addlong_l/activation	/forceset/addlong_l/fiber_length	/forceset/addmagDist_l/activation	/forceset/addmagIsch_l/activation	/forceset/addmagIsch_l/fiber_length	/forceset/addmagMid_l/activation	/forceset/addmagProx_l/activation	/forceset/bflh_l/activation	/forceset/bflh_l/fiber_length	/forceset/bfsh_l/activation	/forceset/edl_l/activation	/forceset/edl_l/fiber_length	/forceset/ehl_l/activation	/forceset/ehl_l/fiber_length	/forceset/fdl_l/activation	/forceset/fdl_l/fiber_length	/forceset/fhl_l/activation	/forceset/fhl_l/fiber_length	/forceset/gaslat_l/activation	/forceset/gaslat_l/fiber_length	/forceset/gasmed_l/activation	/forceset/gasmed_l/fiber_length	/forceset/glmax1_l/activation	/forceset/glmax2_l/activation	/forceset/glmax3_l/activation	/forceset/glmed1_l/activation	/forceset/glmed2_l/activation	/forceset/glmed3_l/activation	/forceset/glmin1_l/activation	/forceset/glmin2_l/activation	/forceset/glmin3_l/activation	/forceset/glmin3_l/fiber_length	/forceset/grac_l/activation	/forceset/iliacus_l/activation	/forceset/perbrev_l/activation	/forceset/perbrev_l/fiber_length	/forceset/perlong_l/activation	/forceset/perlong_l/fiber_length	/forceset/piri_l/activation	/forceset/piri_l/fiber_length	/forceset/psoas_l/activation	/forceset/recfem_l/activation	/forceset/recfem_l/fiber_length	/forceset/sart_l/activation	/forceset/semimem_l/activation	/forceset/semimem_l/fiber_length	/forceset/semiten_l/activation	/forceset/semiten_l/fiber_length	/forceset/soleus_l/activation	/forceset/soleus_l/fiber_length	/forceset/tfl_l/activation	/forceset/tfl_l/fiber_length	/forceset/tibant_l/activation	/forceset/tibant_l/fiber_length	/forceset/tibpost_l/activation	/forceset/tibpost_l/fiber_length	/forceset/vasint_l/activation	/forceset/vasint_l/fiber_length	/forceset/vaslat_l/activation	/forceset/vaslat_l/fiber_length	/forceset/vasmed_l/activation	/forceset/vasmed_l/fiber_length
      1.08800000	      1.57605466	     30.63195203	      0.48727335	     12.86736620	     -0.17702967	     17.97355550	      1.05372702	     -0.01716207	      0.99509171	      0.09159525	      0.03760165	      0.01990859	      6.45585240	    -94.95246557	      1.19528518	    -14.82237538	      6.82264134	    -15.97730283	     15.36061143	     -2.47501606	      0.26809324	     -0.04319719	      0.00000000	      0.00000000	      0.00000000	      0.00000000	      0.00000000	      0.00000000	      9.96565924	     46.34238496	      0.00000000	      0.00000000	      9.99997443	      0.00000000	     15.75868888	     34.90360534	     -9.27309223	      6.83615707	     -6.69356781	    -36.40227065	     56.13091503	   -160.29489214	      0.97966928	     -2.79767361	      0.16793038	     41.50662747	      0.00000000	      0.00000000	      0.00000000	      0.00000000	    -13.10886609	    -23.66639218	      0.44309912	    -23.02745585	      5.14701743	     11.82105431	      9.48807831	     82.06830415	    -21.28985282	    -11.37330733	      4.86444223	     -6.11968865	     36.76498613	      3.68216299	    136.82116104	     17.95774172	      0.00000000	      0.00000000	      0.00000000	      0.00000000	     -1.03360816	    -86.52457153	    -14.42528789	      4.39276440	    -12.50606809	    -62.47670526	     32.29494943	     -6.11927470	    144.46002753	     24.77329979	      0.00000000	      0.00000000	      0.00000000	      0.00000000	      0.01000000	      0.01000000	      0.10000000	      0.01000000	      0.01000000	      0.10000000	      0.01000000	      0.01000000	      0.01000000	      0.10000000	      0.01000000	      0.01000000	      0.10000000	      0.01000000	      0.10000000	      0.01000000	      0.10000000	      0.01000000	      0.10000000	      0.01000000	      0.10000000	      0.01000000	      0.10000000	      0.01000000	      0.01000000	      0.01000000	      0.01000000	      0.01000000	      0.01000000	      0.01000000	      0.01000000	      0.01000000	      0.10000000	      0.01000000	      0.01000000	      0.01000000	      0.10000000	      0.01000000	      0.10000000	      0.01000000	      0.10000000	      0.01000000	      0.01000000	      0.10000000	      0.01000000	      0.01000000	      0.10000000	      0.01000000	      0.10000000	      0.01000000	      0.10000000	      0.01000000	      0.10000000	      0.01000000	      0.10000000	      0.01000000	      0.10000000	      0.01000000	      0.10000000	      0.01000000	      0.10000000	      0.01000000	      0.10000000	      0.01000000	      0.01000000	      0.10000000	      0.01000000	      0.01000000	      0.10000000	      0.01000000	      0.01000000	      0.01000000	      0.10000000	      0.01000000	      0.01000000	      0.10000000	      0.01000000	      0.10000000	      0.01000000	      0.10000000	      0.01000000	      0.10000000	      0.01000000	      0.10000000	      0.01000000	      0.10000000	      0.01000000	      0.01000000	      0.01000000	      0.01000000	      0.01000000	      0.01000000	      0.01000000	      0.01000000	      0.01000000	      0.10000000	      0.01000000	      0.01000000	      0.01000000	      0.10000000	      0.01000000	      0.10000000	      0.01000000	      0.10000000	      0.01000000	      0.01000000	      0.10000000	      0.01000000	      0.01000000	      0.10000000	      0.01000000	      0.10000000	      0.01000000	      0.10000000	      0.01000000	      0.10000000	      0.01000000	      0.10000000	      0.01000000	      0.10000000	      0.01000000	      0.10000000	      0.01000000	      0.10000000	      0.01000000	      0.10000000
      1.09600000	      1.81707487	     29.56868707	      0.59376615	     13.68533722	     -0.05308016	     13.02376509	      1.05359212	     -0.01660556	      0.99581075	      0.08788364	      0.03774422	      0.01559325	      5.69389335	    -95.45138389	      1.07276117	    -15.76227227	      6.71353501	    -11.31073851	     15.32577052	     -6.19281402	      0.26748516	     -0.10808500	      0.00000000	      0.00000000	      0.00000000	      0.00000000	      0.00000000	      0.00000000	     10.32499622	     43.54960236	      0.00000000	      0.00000000	      9.99997443	      0.00000000	     16.00537039	     26.83809088	     -9.20986530	      8.91978162	     -7.02015577	    -45.16131809	     54.76368780	   -181.33652986	      0.95580666	     -3.16491947	      0.48124777	     36.59704106	      0.00000000	      0.00000000	      0.00000000	      0.00000000	    -13.29573762	    -23.01622969	      0.25255224	    -24.52248571	      5.26365466	     17.27858614	     10.12778698	     77.88072414	    -21.37886111	    -10.96079934	      4.80066315	     -9.51880369	     36.79608580	      4.12802163	    136.92135527	      6.48017856	      0.00000000	      0.00000000	      0.00000000	      0.00000000	     -1.73104716	    -87.80590450	    -14.38885224	      4.75972653	    -12.98685073	    -57.71502865	     32.27398634	      0.70601179	    144.64251615	     20.25299269	      0.00000000	      0.00000000	      0.00000000	      0.00000000	      0.01000000	      0.01000000	      0.10000000	      0.01000000	      0.01000000	      0.10000000	      0.01000000	      0.01000000	      0.01000000	      0.10000000	      0.01000000	      0.01000000	      0.10000000	      0.01000000	      0.10000000	      0.01000000	      0.10000000	      0.01000000	      0.10000000	      0.01000000	      0.10000000	      0.01000000	      0.10000000	      0.01000000	      0.01000000	      0.01000000	      0.01000000	      0.01000000	      0.01000000	      0.01000000	      0.01000000	      0.01000000	      0.10000000	      0.01000000	      0.01000000	      0.01000000	      0.10000000	      0.01000000	      0.10000000	      0.01000000	      0.10000000	      0.01000000	      0.01000000	      0.10000000	      0.01000000	      0.01000000	      0.10000000	      0.01000000	      0.10000000	      0.01000000	      0.10000000	      0.01000000	      0.10000000	      0.01000000	      0.10000000	      0.01000000	      0.10000000	      0.01000000	      0.10000000	      0.01000000	      0.10000000	      0.01000000	      0.10000000	      0.01000000	      0.01000000	      0.10000000	      0.01000000	      0.01000000	      0.10000000	      0.01000000	      0.01000000	      0.01000000	      0.10000000	      0.01000000	      0.01000000	      0.10000000	      0.01000000	      0.10000000	      0.01000000	      0.10000000	      0.01000000	      0.10000000	      0.01000000	      0.10000000	      0.01000000	      0.10000000	      0.01000000	      0.01000000	      0.01000000	      0.01000000	      0.01000000	      0.01000000	      0.01000000	      0.01000000	      0.01000000	      0.10000000	      0.01000000	      0.01000000	      0.01000000	      0.10000000	      0.01000000	      0.10000000	      0.01000000	      0.10000000	      0.01000000	      0.01000000	      0.10000000	      0.01000000	      0.01000000	      0.10000000	      0.01000000	      0.10000000	      0.01000000	      0.10000000	      0.01000000	      0.10000000	      0.01000000	      0.10000000	      0.01000000	      0.10000000	      0.01000000	      0.10000000	      0.01000000	      0.10000000	      0.01000000	      0.10000000
      1.10400000	      2.04824635	     28.16598978	      0.70509767	     14.07629986	      0.03167012	      8.19337617	      1.05346060	     -0.01632319	      0.99649327	      0.08245829	      0.03784883	      0.01041087	      4.93007877	    -95.40842273	      0.94385503	    -16.41552998	      6.64132469	     -6.77290486	     15.26228870	     -9.62553389	      0.26637718	     -0.16799726	      0.00000000	      0.00000000	      0.00000000	      0.00000000	      0.00000000	      0.00000000	     10.66344801	     41.12870863	      0.00000000	      0.00000000	      9.99997443	      0.00000000	     16.18940613	     19.26167711	     -9.13116557	     10.70818915	     -7.41453353	    -53.31388750	     53.23229422	   -201.34148103	      0.92907880	     -3.51407174	      0.74992989	     30.35685826	      0.00000000	      0.00000000	      0.00000000	      0.00000000	    -13.47648023	    -22.12407401	      0.05215234	    -25.48865282	      5.42223799	     22.27380837	     10.73473037	     73.90225111	    -21.46648070	    -11.01819339	      4.71731466	    -10.98264589	     36.83145826	      4.73252534	    136.91577747	     -8.37959021	      0.00000000	      0.00000000	      0.00000000	      0.00000000	     -2.43801105	    -88.90202653	    -14.34839396	      5.40332547	    -13.42989547	    -53.09795512	     32.30342941	      6.47534365	    144.77483617	     12.28845643	      0.00000000	      0.00000000	      0.00000000	      0.00000000	      0.01000000	      0.01000000	      0.10000000	      0.01000000	      0.01000000	      0.10000000	      0.01000000	      0.01000000	      0.01000000	      0.10000000	      0.01000000	      0.01000000	      0.10000000	      0.01000000	      0.10000000	      0.01000000	      0.10000000	      0.01000000	      0.10000000	      0.01000000	      0.10000000	      0.01000000	      0.10000000	      0.01000000	      0.01000000	      0.01000000	      0.01000000	      0.01000000	      0.01000000	      0.01000000	      0.01000000	      0.01000000	      0.10000000	      0.01000000	      0.01000000	      0.01000000	      0.10000000	      0.01000000	      0.10000000	      0.01000000	      0.10000000	      0.01000000	      0.01000000	      0.10000000	      0.01000000	      0.01000000	      0.10000000	      0.01000000	      0.10000000	      0.01000000	      0.10000000	      0.01000000	      0.10000000	      0.01000000	      0.10000000	      0.01000000	      0.10000000	      0.01000000	      0.10000000	      0.01000000	      0.10000000	      0.01000000	      0.10000000	      0.01000000	      0.01000000	      0.10000000	      0.01000000	      0.01000000	      0.10000000	      0.01000000	      0.01000000	      0.01000000	      0.10000000	      0.01000000	      0.01000000	      0.10000000	      0.01000000	      0.10000000	      0.01000000	      0.10000000	      0.01000000	      0.10000000	      0.01000000	      0.10000000	      0.01000000	      0.10000000	      0.01000000	      0.01000000	      0.01000000	      0.01000000	      0.01000000	      0.01000000	      0.01000000	      0.01000000	      0.01000000	      0.10000000	      0.01000000	      0.01000000	      0.01000000	      0.10000000	      0.01000000	      0.10000000	      0.01000000	      0.10000000	      0.01000000	      0.01000000	      0.10000000	      0.01000000	      0.01000000	      0.10000000	      0.01000000	      0.10000000	      0.01000000	      0.10000000	      0.01000000	      0.10000000	      0.01000000	      0.10000000	      0.01000000	      0.10000000	      0.01000000	      0.10000000	      0.01000000	      0.10000000	      0.01000000	      0.10000000
      1.11200000	      2.26679275	     26.41197849	      0.81786521	     14.04714429	      0.07864032	      3.59834526	      1.05333010	     -0.01635887	      0.99712556	      0.07533750	      0.03790839	      0.00432786	      4.16888780	    -94.79258424	      0.81089343	    -16.77637513	      6.60452587	     -2.47625535	     15.17265633	    -12.72277591	      0.26481283	     -0.22205433	      0.00000000	      0.00000000	      0.00000000	      0.00000000	      0.00000000	      0.00000000	     10.98412496	     39.10799662	      0.00000000	      0.00000000	      9.99997443	      0.00000000	     16.31513159	     12.27527541	     -9.03922641	     12.23780218	     -7.87094801	    -60.62854172	     51.54492225	   -220.33519652	      0.89962860	     -3.84557463	      0.96363109	     22.87174272	      0.00000000	      0.00000000	      0.00000000	      0.00000000	    -13.64892159	    -20.93160537	     -0.15385298	    -25.92526432	      5.61831483	     26.62479156	     11.31113663	     70.26491687	    -21.55625061	    -11.48677379	      4.63037985	    -10.41247896	     36.87194334	      5.38886448	    136.78058963	    -25.73509365	      0.00000000	      0.00000000	      0.00000000	      0.00000000	     -3.15288934	    -89.77592932	    -14.30159310	      6.34878980	    -13.83765798	    -48.94410992	     32.37466846	     11.14862890	    144.83157382	      1.50452611	      0.00000000	      0.00000000	      0.00000000	      0.00000000	      0.01000000	      0.01000000	      0.10000000	      0.01000000	      0.01000000	      0.10000000	      0.01000000	      0.01000000	      0.01000000	      0.10000000	      0.01000000	      0.01000000	      0.10000000	      0.01000000	      0.10000000	      0.01000000	      0.10000000	      0.01000000	      0.10000000	      0.01000000	      0.10000000	      0.01000000	      0.10000000	      0.01000000	      0.01000000	      0.01000000	      0.01000000	      0.01000000	      0.01000000	      0.01000000	      0.01000000	      0.01000000	      0.10000000	      0.01000000	      0.01000000	      0.01000000	      0.10000000	      0.01000000	      0.10000000	      0.01000000	      0.10000000	      0.01000000	      0.01000000	      0.10000000	      0.01000000	      0.01000000	      0.10000000	      0.01000000	      0.10000000	      0.01000000	      0.10000000	      0.01000000	      0.10000000	      0.01000000	      0.10000000	      0.01000000	      0.10000000	      0.01000000	      0.10000000	      0.01000000	      0.10000000	      0.01000000	      0.10000000	      0.01000000	      0.01000000	      0.10000000	      0.01000000	      0.01000000	      0.10000000	      0.01000000	      0.01000000	      0.01000000	      0.10000000	      0.01000000	      0.01000000	      0.10000000	      0.01000000	      0.10000000	      0.01000000	      0.10000000	      0.01000000	      0.10000000	      0.01000000	      0.10000000	      0.01000000	      0.10000000	      0.01000000	      0.01000000	      0.01000000	      0.01000000	      0.01000000	      0.01000000	      0.01000000	      0.01000000	      0.01000000	      0.10000000	      0.01000000	      0.01000000	      0.01000000	      0.10000000	      0.01000000	      0.10000000	      0.01000000	      0.10000000	      0.01000000	      0.01000000	      0.10000000	      0.01000000	      0.01000000	      0.10000000	      0.01000000	      0.10000000	      0.01000000	      0.10000000	      0.01000000	      0.10000000	      0.01000000	      0.10000000	      0.01000000	      0.10000000	      0.01000000	      0.10000000	      0.01000000	      0.10000000	      0.01000000	      0.10000000
